<?xml version="1.0" encoding="utf-8"?>
<!-- Generator: Adobe Illustrator 22.1.0, SVG Export Plug-In . SVG Version: 6.00 Build 0)  -->
<svg version="1.1" id="Layer_1" xmlns="http://www.w3.org/2000/svg" xmlns:xlink="http://www.w3.org/1999/xlink" x="0px" y="0px"
	 viewBox="0 0 460 460" style="enable-background:new 0 0 460 460;" xml:space="preserve">
<style type="text/css">
	.st0{fill:#66D100;}
	.st1{fill:#38C47D;}
	.st2{fill:#FFFFFF;}
</style>
<path class="st0" d="M428,460H32c-17.6,0-32-14.4-32-32V32C0,14.4,14.4,0,32,0h396c17.6,0,32,14.4,32,32v396
	C460,445.6,445.6,460,428,460z"/>
<path class="st0" d="M378.7,248.6v95c0,5.5-4.5,10-10,10H91.3c-5.5,0-10-4.5-10-10v-95h117.5v22.1h62.5v-22.1H378.7z"/>
<path class="st0" d="M378.7,153.6v95H261.2v-22.1h-62.5v22.1H81.3v-95c0-5.5,4.5-10,10-10h277.5
	C374.2,143.6,378.7,148.1,378.7,153.6z"/>
<rect x="198.7" y="226.5" class="st1" width="62.5" height="44.1"/>
<path class="st2" d="M368.7,136.1h-68.2v-29.7c0-4.1-3.4-7.5-7.5-7.5H167c-4.1,0-7.5,3.4-7.5,7.5v29.7H91.3
	c-9.6,0-17.5,7.9-17.5,17.5c0,8.3,0,181.6,0,189.9c0,9.6,7.9,17.5,17.5,17.5h277.5c9.6,0,17.5-7.9,17.5-17.5c0-8.3,0-181.6,0-189.9
	C386.2,144,378.4,136.1,368.7,136.1z M174.5,113.9h111.1v22.2H174.5V113.9z M88.8,153.6c0-1.4,1.1-2.5,2.5-2.5h277.5
	c1.4,0,2.5,1.1,2.5,2.5v87.5H268.7v-14.6c0-4.1-3.4-7.5-7.5-7.5h-62.5c-4.1,0-7.5,3.4-7.5,7.5v14.6H88.8V153.6z M206.2,248.6V234
	h47.5v14.6v14.6h-47.5V248.6z M371.2,343.6c0,1.4-1.1,2.5-2.5,2.5H91.3c-1.4,0-2.5-1.1-2.5-2.5v-87.5h102.5v14.6
	c0,4.1,3.4,7.5,7.5,7.5h62.5c4.1,0,7.5-3.4,7.5-7.5v-14.6h102.5L371.2,343.6L371.2,343.6z"/>
</svg>
