<?xml version="1.0" encoding="utf-8"?>
<!-- Generator: Adobe Illustrator 22.1.0, SVG Export Plug-In . SVG Version: 6.00 Build 0)  -->
<svg version="1.1" id="Layer_1" xmlns="http://www.w3.org/2000/svg" xmlns:xlink="http://www.w3.org/1999/xlink" x="0px" y="0px"
	 viewBox="0 0 300 300" style="enable-background:new 0 0 300 300;" xml:space="preserve">
<style type="text/css">
	.st0{fill:#DE3C62;}
	.st1{fill:#FFFFFF;}
</style>
<title>subscription</title>
<g id="OBJECTS">
	<path class="st0" d="M32,0h236c17.7,0,32,14.3,32,32v236c0,17.7-14.3,32-32,32H32c-17.7,0-32-14.3-32-32V32C0,14.3,14.3,0,32,0z"/>
	<path class="st1" d="M150.3,225.7l0.6-1.2l81.4-107.1c0-1.3,0.4-2.6,1.2-3.7l-30.6-30.3l-0.3,0.2l-18.5-9.6l-67.3-0.5l-18.6,9.4
		l-0.3-0.2l-30.2,29.2c-0.2,0.5-0.5,0.9-0.8,1.3c0.1,0.5,0.1,1.1,0,1.6L148,224.5l0.9,1.9c0.2,0,0.4,0,0.6,0
		C149.8,226.1,150,225.9,150.3,225.7z M159,208.4l38.8-77l29.4-12.6L159,208.4z M202.4,87.4l27,26.8l-31.9,13.7L185.6,97L202.4,87.4
		z M194.2,128.4l-88.2-0.6l12.1-30.4l64.3,0.4L194.2,128.4z M117.6,76.8l65.8,0.4l15.9,8.3l-16.1,9.1l-65.7-0.4l-15.9-9.3
		L117.6,76.8z M98.4,86.8l16.6,9.7l-12.3,30.8l-31.7-14.1L98.4,86.8z M73.2,117.8l29.2,13l37.8,77.5L73.2,117.8z M106.2,131.2
		l87.7,0.6l-44.4,88.2L106.2,131.2z"/>
	<path class="st1" d="M172.2,103.6c0,0-44.7,5-45.8,9.6s17.3,8,17.3,8l-30.1-0.4l9.1-18.4L172.2,103.6z"/>
	<path class="st1" d="M201.6,120.5l-9.2-21.2c0,0,6.9,11.5,11.1,14.1s15.5-0.5,15.5-0.5L201.6,120.5z"/>
	<path class="st1" d="M96.1,103.5c-5,7.1,3.3,16.8,3.3,16.8l-20.5-9.8l19.4-19.1l11.7,7C109.9,98.5,101.1,96.5,96.1,103.5z"/>
	<path class="st1" d="M99.8,134.3c-0.7,8.7,18.1,38.4,18.1,38.4l-29.5-42.8L99.8,134.3z"/>
	<path class="st1" d="M196.8,147.9c0.6,2,2.8,0.8,2.8,0.8l-21.2,27.6l21.5-39.9C200,136.4,196.3,146.2,196.8,147.9z"/>
	<path class="st1" d="M170.1,166.8l-20.8,46.3l-0.9-2.6l0.1,0.4l-31.9-74.6l39.4,1.6c0,0-16.1,3.2-19.6,11.4
		c-2.5,6.1,5.4,37,9.6,52.6c1,1.7,3.3,2.2,5,1.2c0.6-0.3,1-0.8,1.3-1.4L170.1,166.8z"/>
	<path class="st1" d="M124,85.6c0.5,3.8,19,4.4,19,4.4l-23.4,0.8l-9.1-5.8l10.3-4.8l59.4,0.4C180.3,80.6,123.4,81.8,124,85.6z"/>
	<path class="st1" d="M150.7,225.3c-14.1-19.7-28.5-39.2-42.7-58.8c-13.5-18.1-26.9-36.3-40.5-54.3c-0.2,0.3-0.4,0.6-0.6,0.8
		c0.2,1.1,0.1,2.3-0.4,3.4c12.7,17.5,25.5,35,38.2,52.5c14.3,19.2,28.5,38.5,42.9,57.6c0.7-0.2,1.3-0.2,2-0.2
		C149.9,226,150.3,225.6,150.7,225.3z"/>
</g>
</svg>
