<svg xmlns="http://www.w3.org/2000/svg" viewBox="0 0 300 300"><defs><style>.cls-1{fill:#d13c58;}.cls-2{fill:#fff;}</style></defs><title>subscription</title><g id="OBJECTS"><rect class="cls-1" width="300" height="300" rx="32" ry="32"/><path class="cls-2" d="M150.27,225.66l.6-1.17,81.42-107.06a6.3,6.3,0,0,1,1.21-3.73L202.94,83.36l-.31.17-18.48-9.62-67.34-.46L98.19,82.83l-.3-.18L67.68,111.84a6.62,6.62,0,0,1-.77,1.31,6,6,0,0,1,0,1.63l81.11,109.7.91,1.85c.21,0,.41,0,.62,0A8.84,8.84,0,0,1,150.27,225.66ZM159,208.39l38.81-77,29.37-12.63ZM202.39,87.45l27,26.78-31.85,13.7L185.64,97Zm-8.2,41-88.17-.6,12.14-30.43,64.31.43Zm-76.61-51.7,65.75.44,15.89,8.28-16.05,9.1-65.67-.45L101.57,84.8Zm-19.2,10L115,96.47l-12.29,30.81L71.05,113.16Zm-25.18,31,29.19,13,37.77,77.52Zm33,13.43,87.69.6-44.44,88.17Z"/><path class="cls-2" d="M172.24,103.64s-44.65,5-45.79,9.56,17.25,8,17.25,8l-30.14-.45,9.1-18.39Z"/><path class="cls-2" d="M201.63,120.49l-9.17-21.17s6.95,11.49,11.12,14.08,15.5-.47,15.5-.47Z"/><path class="cls-2" d="M96.14,103.54c-5,7.07,3.31,16.81,3.31,16.81l-20.52-9.8L98.29,91.48l11.66,7S101.12,96.47,96.14,103.54Z"/><path class="cls-2" d="M99.78,134.25c-.67,8.7,18.12,38.45,18.12,38.45L88.38,129.91Z"/><path class="cls-2" d="M196.84,147.93c.62,2,2.83.76,2.83.76l-21.17,27.6L200,136.4S196.28,146.19,196.84,147.93Z"/><path class="cls-2" d="M170.15,166.78l-20.84,46.27-.88-2.62.13.45-31.91-74.61L156,137.89s-16.14,3.2-19.55,11.38c-2.54,6.06,5.37,37,9.63,52.61a3.61,3.61,0,0,0,6.29-.24Z"/><path class="cls-2" d="M124,85.6C124.52,89.43,143,90,143,90l-23.43.84L110.52,85l10.35-4.79,59.43.39S123.41,81.77,124,85.6Z"/><path class="cls-2" d="M150.67,225.31c-14.13-19.67-28.48-39.17-42.71-58.76-13.51-18.09-26.91-36.26-40.49-54.29a7.66,7.66,0,0,1-.56.84,5.88,5.88,0,0,1-.41,3.36C79.16,134,92,151.45,104.67,169c14.32,19.2,28.52,38.47,42.94,57.59a6.17,6.17,0,0,1,2-.2A8.31,8.31,0,0,1,150.67,225.31Z"/></g></svg>