<?xml version="1.0" encoding="utf-8"?>
<!-- Generator: Adobe Illustrator 22.1.0, SVG Export Plug-In . SVG Version: 6.00 Build 0)  -->
<svg version="1.1" id="Layer_1" xmlns="http://www.w3.org/2000/svg" xmlns:xlink="http://www.w3.org/1999/xlink" x="0px" y="0px"
	 viewBox="0 0 1650 1650" style="enable-background:new 0 0 1650 1650;" xml:space="preserve">
<style type="text/css">
	.st0{fill:#4099ED;}
	.st1{fill:#FFFFFF;}
	.st2{opacity:0.84;fill:#FFFFFF;enable-background:new    ;}
</style>
<title>support</title>
<g id="Illustration">
	<path class="st0" d="M96,0h1458c53,0,96,43,96,96v1458c0,53-43,96-96,96H96c-53,0-96-43-96-96V96C0,43,43,0,96,0z"/>
	<path class="st1" d="M571.3,789.1l-18.8-0.8c0.2-5.5,6.5-136.7,87.6-215.1l13.1,13.5C577.4,660,571.3,787.8,571.3,789.1z"/>
	<path class="st1" d="M1120.9,789.1l18.8-0.8c-0.2-5.5-6.4-136.7-87.6-215.1l-13.1,13.5C1114.8,660,1120.8,787.8,1120.9,789.1z"/>
	<path class="st1" d="M1076.1,612.1c-6.6,7.3-17.8,5.7-25.4-2.9c-114-129-292.3-129-406.4,0c-7.6,8.6-18.8,10.2-25.4,2.9l0,0
		c-6.6-7.3-5.4-21.8,3.2-31.6c126.5-143.1,324.3-143.1,450.9,0C1081.5,590.3,1082.8,604.8,1076.1,612.1z"/>
	<path class="st1" d="M1143.7,699.3c3-0.9,5.4,0.3,7.1,2.9l27.5,42.1c8,12.6,13.1,27.3,13.1,42.3v38.3c0,0,37.1,28.8,37.1,70.6
		s-25.7,98.3-58.1,107.8c-1.8,3.8-3.5,7.1-4.7,9.7c-3.6,7.8-10.7,12.3-19.2,10.9l-6.3-1.3V705.9
		C1140.1,702.8,1140.8,700.1,1143.7,699.3z"/>
	<path class="st1" d="M1104.2,751.8h1.4c19.1,0,34.5,15.5,34.5,34.5v238.5c0,19.1-15.5,34.5-34.5,34.5h-1.4
		c-19.1,0-34.5-15.5-34.5-34.5V786.3C1069.7,767.2,1085.1,751.8,1104.2,751.8z"/>
	<path class="st1" d="M793.9,1162.3c-5.3-0.1-131.7-3.7-243.5-49.3c-48.3-19.7-82.9-61.7-99.9-121.3c-12.6-44.3-11.2-82.4-11.1-84
		l18.8,0.8l-9.4-0.4l9.4,0.4c-0.2,26.6,3.3,53,10.6,78.6c15.6,54.3,45.5,90.9,88.7,108.5c108.5,44.3,235.5,47.9,236.8,48
		L793.9,1162.3z"/>
	<path class="st1" d="M811.9,1125.5h75.5c13.3,0,24.2,10.8,24.2,24.2v2.9c0,13.3-10.8,24.2-24.2,24.2h-75.5
		c-13.3,0-24.2-10.8-24.2-24.2v-2.9C787.8,1136.4,798.6,1125.5,811.9,1125.5z"/>
	<path class="st1" d="M446.5,884.2H484c13.2,0,23.9,10.7,23.9,23.9v3.4c0,13.2-10.7,23.9-23.9,23.9h-37.6
		c-13.2,0-23.9-10.7-23.9-23.9v-3.4C422.5,894.9,433.3,884.2,446.5,884.2z"/>
	<path class="st1" d="M548.4,702.4c-2.9-0.9-6,0.3-7.5,2.9L514,747.4c-8.1,12.6-12.4,27.3-12.5,42.3V828c0,0-37.9,28.8-37.9,70.6
		s25.3,98.4,57.7,107.7c1.8,3.9,3.3,7.1,4.5,9.7c3.6,7.8,11.4,12.3,19.8,10.9l7-1.3V709C552.8,706,551.4,703.3,548.4,702.4z"/>
	<path class="st1" d="M587.4,756.1h1.4c19.1,0,34.5,15.5,34.5,34.5v238.5c0,19.1-15.5,34.5-34.5,34.5h-1.4
		c-19.1,0-34.5-15.5-34.5-34.5V790.6C552.8,771.5,568.3,756.1,587.4,756.1z"/>
	<path class="st1" d="M756.2,724.3h187.5c55.9,0,101.3,45.3,101.3,101.3v1.4c0,55.9-45.3,101.3-101.3,101.3H756.2
		C700.3,928.2,655,882.9,655,827v-1.4C655,769.7,700.3,724.3,756.2,724.3z"/>
	<path class="st1" d="M884.9,904.1l74.9,6.3l-117.3,133.2c-0.5,0.6-1.4,0.6-1.9,0.1c-0.4-0.4-0.6-0.9-0.4-1.5L884.9,904.1z"/>
	<path class="st2" d="M926.4,832.5c0,11.1,9,20.2,20.2,20.2c11.1,0,20.2-9,20.2-20.2c0-11.1-9-20.2-20.2-20.2c0,0,0,0,0,0
		C935.5,812.3,926.4,821.4,926.4,832.5C926.4,832.5,926.4,832.5,926.4,832.5z"/>
	<path class="st2" d="M825.2,832.5c0,11.1,9,20.2,20.2,20.2c11.1,0,20.2-9,20.2-20.2c0-11.1-9-20.2-20.2-20.2c0,0,0,0,0,0
		C834.2,812.3,825.2,821.4,825.2,832.5C825.2,832.5,825.2,832.5,825.2,832.5z"/>
	<path class="st2" d="M723.9,832.5c0,11.1,9,20.2,20.2,20.2c11.1,0,20.2-9,20.2-20.2c0-11.1-9-20.2-20.2-20.2c0,0,0,0,0,0
		C733,812.3,723.9,821.4,723.9,832.5C723.9,832.5,723.9,832.5,723.9,832.5z"/>
</g>
</svg>
