<svg xmlns="http://www.w3.org/2000/svg" viewBox="0 0 1650 1650"><defs><style>.cls-1{fill:#4099ed;}.cls-2,.cls-3{fill:#fff;}.cls-3{opacity:0.84;}</style></defs><title>support</title><g id="Illustration"><rect class="cls-1" width="1650" height="1650" rx="96" ry="96"/><path class="cls-2" d="M570.79,789.13,552,788.37c.23-5.55,6.46-136.73,87.62-215.13l13.08,13.55C576.88,660,570.84,787.85,570.79,789.13Z" transform="translate(0.5)"/><path class="cls-2" d="M1120.37,789.13l18.82-.76c-.22-5.55-6.45-136.73-87.61-215.13l-13.09,13.55C1114.28,660,1120.32,787.85,1120.37,789.13Z" transform="translate(0.5)"/><path class="cls-2" d="M1075.63,612.1c-6.63,7.33-17.82,5.66-25.42-2.91-114.05-129-292.33-129-406.38,0-7.6,8.57-18.79,10.24-25.42,2.91h0c-6.63-7.31-5.42-21.85,3.18-31.56,126.53-143.1,324.32-143.1,450.86,0,8.59,9.71,9.8,24.25,3.18,31.56Z" transform="translate(0.5)"/><path class="cls-2" d="M1143.24,699.25c3-.86,5.44.34,7.09,2.94l27.49,42.1c8,12.64,13.07,27.3,13.07,42.27v38.29S1228,853.62,1228,895.47s-25.68,98.35-58.11,107.77c-1.76,3.85-3.5,7.06-4.71,9.74-3.56,7.82-10.68,12.29-19.15,10.88l-6.35-1.27V705.91C1139.63,702.82,1140.27,700.11,1143.24,699.25Z" transform="translate(0.5)"/><rect class="cls-2" x="1069.66" y="751.79" width="70.48" height="307.53" rx="34.53" ry="34.53"/><path class="cls-2" d="M793.43,1162.27c-5.33-.13-131.71-3.71-243.45-49.35-48.34-19.74-82.87-61.69-99.86-121.29-12.63-44.31-11.21-82.4-11.14-84l18.81.79-9.4-.39,9.4.38A279.48,279.48,0,0,0,468.37,987c15.62,54.34,45.47,90.86,88.73,108.52,108.46,44.31,235.52,47.93,236.79,48Z" transform="translate(0.5)"/><rect class="cls-2" x="787.75" y="1125.53" width="123.87" height="51.26" rx="24.17" ry="24.17"/><rect class="cls-2" x="422.55" y="884.2" width="85.43" height="51.26" rx="23.93" ry="23.93"/><path class="cls-2" d="M547.93,702.39a6.5,6.5,0,0,0-7.49,2.94l-26.9,42.09a79.15,79.15,0,0,0-12.47,42.28V828s-37.85,28.78-37.85,70.63S488.5,997,520.93,1006.37c1.76,3.86,3.3,7.07,4.51,9.74,3.56,7.83,11.37,12.3,19.85,10.89l7-1.27V709.05C552.33,706,550.89,703.25,547.93,702.39Z" transform="translate(0.5)"/><rect class="cls-2" x="552.83" y="756.06" width="70.48" height="307.53" rx="34.53" ry="34.53"/><rect class="cls-2" x="654.98" y="794.35" width="390" height="203.86" rx="101.25" ry="101.25"/><path class="cls-2" d="M884.39,974.12l74.89,6.31L842,1113.61a1.38,1.38,0,0,1-2.35-1.33Z" transform="translate(0.5)"/><path class="cls-3" d="M925.93,902.51a20.17,20.17,0,1,0,20.16-20.17A20.16,20.16,0,0,0,925.93,902.51Z" transform="translate(0.5)"/><path class="cls-3" d="M824.68,902.51a20.17,20.17,0,1,0,20.16-20.17A20.16,20.16,0,0,0,824.68,902.51Z" transform="translate(0.5)"/><path class="cls-3" d="M723.42,902.51a20.17,20.17,0,1,0,20.17-20.17A20.16,20.16,0,0,0,723.42,902.51Z" transform="translate(0.5)"/></g></svg>