<?xml version="1.0" encoding="utf-8"?>
<!-- Generator: Adobe Illustrator 22.1.0, SVG Export Plug-In . SVG Version: 6.00 Build 0)  -->
<svg version="1.1" id="Layer_1" xmlns="http://www.w3.org/2000/svg" xmlns:xlink="http://www.w3.org/1999/xlink" x="0px" y="0px"
	 viewBox="0 0 460 460" style="enable-background:new 0 0 460 460;" xml:space="preserve">
<style type="text/css">
	.st0{fill:#B151D7;}
	.st1{fill:#FFFFFF;}
</style>
<path class="st0" d="M427.7,461h-396c-17.6,0-32-14.4-32-32V33c0-17.6,14.4-32,32-32h396c17.6,0,32,14.4,32,32v396
	C459.7,446.6,445.3,461,427.7,461z"/>
<polygon class="st1" points="276.4,385.6 271.6,240 271.2,98.9 264.8,98.9 265.2,240.2 270,385.8 "/>
<polygon class="st1" points="192,385.8 196.8,240.1 197.2,98.9 190.8,98.9 190.4,240 185.6,385.6 "/>
<rect x="135.8" y="380.9" class="st1" width="191.1" height="15.9"/>
<path class="st1" d="M268.1,98.6v-3.2h-67.8L230.4,56l35.2,44.6L268.1,98.6v-3.2V98.6l2.5-2l-37.7-47.9c-0.6-0.8-1.6-1.2-2.6-1.2
	c-1,0-1.9,0.5-2.5,1.3l-36.6,47.9c-0.7,1-0.9,2.3-0.3,3.4c0.5,1.1,1.7,1.8,2.9,1.8h74.3c1.2,0,2.4-0.7,2.9-1.8
	c0.5-1.1,0.4-2.4-0.4-3.4L268.1,98.6z"/>
<path class="st1" d="M194.2,166.7H268c1.8,0,3.2-1.4,3.2-3.2c0-1.8-1.4-3.2-3.2-3.2h-73.8c-1.8,0-3.2,1.4-3.2,3.2
	C191,165.3,192.4,166.7,194.2,166.7"/>
<path class="st1" d="M193.7,241.1h74.7c1.8,0,3.2-1.4,3.2-3.2c0-1.8-1.4-3.2-3.2-3.2h-74.7c-1.8,0-3.2,1.4-3.2,3.2
	C190.5,239.7,191.9,241.1,193.7,241.1"/>
<path class="st1" d="M192,315.5h78.3c1.8,0,3.2-1.4,3.2-3.2s-1.4-3.2-3.2-3.2H192c-1.8,0-3.2,1.4-3.2,3.2S190.2,315.5,192,315.5"/>
<path class="st1" d="M264.7,96.9L193,160.5c-1.3,1.2-1.5,3.2-0.3,4.6c1.2,1.3,3.2,1.5,4.6,0.3l71.8-63.6c1.3-1.2,1.5-3.2,0.3-4.6
	C268.1,95.8,266.1,95.7,264.7,96.9"/>
<path class="st1" d="M193,101.7l71.8,63.6c1.3,1.2,3.4,1.1,4.6-0.3c1.2-1.3,1.1-3.4-0.3-4.6l-71.8-63.6c-1.3-1.2-3.4-1.1-4.6,0.3
	C191.5,98.5,191.6,100.5,193,101.7"/>
<path class="st1" d="M264.7,161.4l-72.8,73.8c-1.3,1.3-1.2,3.3,0,4.6c1.3,1.3,3.3,1.2,4.6,0l72.8-73.8c1.3-1.3,1.2-3.3,0-4.6
	C268,160.1,265.9,160.1,264.7,161.4"/>
<path class="st1" d="M192.7,167l72.6,71.4c1.3,1.3,3.3,1.2,4.6,0c1.3-1.3,1.2-3.3,0-4.6l-72.6-71.4c-1.3-1.3-3.3-1.2-4.6,0
	C191.4,163.7,191.4,165.7,192.7,167"/>
<path class="st1" d="M265.5,237.9l-74,71c-1.3,1.2-1.3,3.3-0.1,4.6c1.2,1.3,3.3,1.3,4.6,0.1l74-71c1.3-1.2,1.3-3.3,0.1-4.6
	C268.8,236.7,266.7,236.7,265.5,237.9"/>
<path class="st1" d="M191.5,242.6l74,71c1.3,1.2,3.3,1.2,4.6-0.1c1.2-1.3,1.2-3.3-0.1-4.6l-74-71c-1.3-1.2-3.3-1.2-4.6,0.1
	C190.1,239.3,190.2,241.4,191.5,242.6"/>
<path class="st1" d="M267.6,310.3l-78.3,71.2c-1.3,1.2-1.4,3.3-0.2,4.6c1.2,1.3,3.2,1.4,4.6,0.2l78.3-71.2c1.3-1.2,1.4-3.3,0.2-4.6
	C270.9,309.2,268.9,309.1,267.6,310.3"/>
<path class="st1" d="M189.3,315.1l78.3,71.2c1.3,1.2,3.4,1.1,4.6-0.2c1.2-1.3,1.1-3.4-0.2-4.6l-78.3-71.2c-1.3-1.2-3.4-1.1-4.6,0.2
	C187.9,311.8,188,313.9,189.3,315.1"/>
<path class="st1" d="M267.7,129.8v-3.2h-74c-0.5,0-0.9,0.1-1.3,0.3l-75.2,33.3c-1.4,0.6-2.2,2.1-1.9,3.6c0.3,1.5,1.6,2.6,3.2,2.6
	h223.6c1.5,0,2.8-1.1,3.2-2.6c0.3-1.5-0.5-3-1.8-3.6L269,126.8c-0.4-0.2-0.9-0.3-1.3-0.3V129.8l-1.3,3l60.6,27.1H133.8l60.6-26.8
	h73.3V129.8l-1.3,3L267.7,129.8z"/>
<path class="st1" d="M268.5,199.8v-3.2h-74.3c-0.5,0-1,0.1-1.5,0.4L117,235.4c-1.3,0.7-2,2.2-1.7,3.6c0.3,1.5,1.7,2.5,3.1,2.5h223.6
	c1.5,0,2.8-1,3.1-2.5c0.4-1.4-0.3-3-1.6-3.6L270,196.9c-0.5-0.2-1-0.4-1.5-0.4V199.8l-1.5,2.9l61.9,32.4H132l63-32h73.5V199.8
	l-1.5,2.9L268.5,199.8z"/>
<path class="st1" d="M114.9,238.7v17c0,1.8,1.4,3.2,3.2,3.2c1.8,0,3.2-1.4,3.2-3.2v-17c0-1.8-1.5-3.2-3.2-3.2
	C116.4,235.4,114.9,236.9,114.9,238.7"/>
<rect x="109" y="255.3" class="st1" width="38.1" height="10.1"/>
<path class="st1" d="M114.9,163.3v17c0,1.8,1.4,3.2,3.2,3.2c1.8,0,3.2-1.4,3.2-3.2v-17c0-1.8-1.5-3.2-3.2-3.2
	C116.4,160,114.9,161.5,114.9,163.3"/>
<rect x="109" y="179.9" class="st1" width="38.1" height="10.1"/>
<path class="st1" d="M338.6,239.1v17c0,1.8,1.4,3.2,3.2,3.2c1.8,0,3.2-1.4,3.2-3.2v-17c0-1.8-1.4-3.2-3.2-3.2
	C340,235.8,338.6,237.3,338.6,239.1"/>
<rect x="312.9" y="255.7" class="st1" width="38.1" height="10.1"/>
<path class="st1" d="M338.6,163.7v17c0,1.8,1.4,3.2,3.2,3.2c1.8,0,3.2-1.4,3.2-3.2v-17c0-1.8-1.4-3.2-3.2-3.2
	C340,160.4,338.6,161.9,338.6,163.7"/>
<rect x="312.9" y="180.3" class="st1" width="38.1" height="10.1"/>
</svg>
