<?xml version="1.0" encoding="utf-8"?>
<!-- Generator: Adobe Illustrator 22.1.0, SVG Export Plug-In . SVG Version: 6.00 Build 0)  -->
<svg version="1.1" id="Layer_1" xmlns="http://www.w3.org/2000/svg" xmlns:xlink="http://www.w3.org/1999/xlink" x="0px" y="0px"
	 viewBox="0 0 460 460" style="enable-background:new 0 0 460 460;" xml:space="preserve">
<style type="text/css">
	.st0{fill:#DE3C62;}
	.st1{fill:#FFFFFF;}
</style>
<path class="st0" d="M428,461H32c-17.6,0-32-14.4-32-32V33C0,15.4,14.4,1,32,1h396c17.6,0,32,14.4,32,32v396
	C460,446.6,445.6,461,428,461z"/>
<g>
	<rect x="224.3" y="275.1" class="st1" width="11.5" height="61.7"/>
	<path class="st1" d="M160.4,331.1h139.3c1.1,0,2,0.3,2.9,0.8l47.3,22.2l-2.4,5.2l2.4-5.2c2.9,1.4,4.1,4.8,2.8,7.7
		c-1,2.1-3.1,3.4-5.3,3.3H112.6c-3.2,0-5.8-2.6-5.8-5.8c0-2.5,1.6-4.6,3.8-5.4l47.2-22.2l0,0C158.7,331.3,159.5,331.1,160.4,331.1
		L160.4,331.1z M298.5,342.6h-137l-23.1,10.9h183.3L298.5,342.6z"/>
	<polygon class="st1" points="303.4,99.5 339.9,274 341.4,280.9 334.3,280.9 230,280.9 125.7,280.9 118.6,280.9 120.1,274 
		156.6,99.5 167.9,101.8 132.8,269.4 230,269.4 327.2,269.4 292.1,101.8 	"/>
	<polygon class="st1" points="260.6,100.2 274,274.7 274.4,280.9 268.2,280.9 230,280.9 191.8,280.9 185.6,280.9 186.1,274.7 
		199.4,100.6 210.9,101.4 198,269.4 230,269.4 262,269.4 249.1,101.1 	"/>
	<rect x="107.5" y="132.1" class="st1" width="245.1" height="11.5"/>
	<rect x="93.7" y="172.6" class="st1" width="272.6" height="11.5"/>
	<rect x="79.2" y="215.2" class="st1" width="301.6" height="11.5"/>
	<path class="st1" d="M120.8,94.9h218.6c2.7,0,5,1.9,5.6,4.4l54.4,174.1l0,0c0.9,3-0.7,6.3-3.8,7.2c-0.6,0.2-1.2,0.3-1.8,0.3H66.1
		c-3.2,0-5.8-2.6-5.8-5.8c0-0.7,0.1-1.4,0.4-2.1l54.5-174.1l5.5,1.7l-5.5-1.7C116,96.4,118.3,94.8,120.8,94.9L120.8,94.9z
		 M335.1,106.4H124.9l-51,163h312.2L335.1,106.4z"/>
</g>
</svg>
