<?xml version="1.0" encoding="utf-8"?>
<!-- Generator: Adobe Illustrator 22.1.0, SVG Export Plug-In . SVG Version: 6.00 Build 0)  -->
<svg version="1.1" id="Layer_1" xmlns="http://www.w3.org/2000/svg" xmlns:xlink="http://www.w3.org/1999/xlink" x="0px" y="0px"
	 viewBox="0 0 460 460" style="enable-background:new 0 0 460 460;" xml:space="preserve">
<style type="text/css">
	.st0{fill:#66D100;}
	.st1{fill:#FFFFFF;}
</style>
<path class="st0" d="M428,461H32c-17.6,0-32-14.4-32-32V33C0,15.4,14.4,1,32,1h396c17.6,0,32,14.4,32,32v396
	C460,446.6,445.6,461,428,461z"/>
<path class="st1" d="M146,373.8h139.3c1.1,0,2,0.3,2.9,0.8l47.3,22.2l-2.4,5.2l2.4-5.2c2.9,1.4,4.1,4.8,2.8,7.7
	c-1,2.1-3.1,3.4-5.3,3.3H98.2c-3.2,0-5.8-2.6-5.8-5.8c0-2.5,1.6-4.6,3.8-5.4l47.2-22.2l0,0C144.3,374,145.1,373.8,146,373.8
	L146,373.8z M284.1,385.3h-137L124,396.2h183.3L284.1,385.3z"/>
<polygon class="st1" points="289,142.2 325.5,316.7 327,323.6 319.9,323.6 215.6,323.6 111.3,323.6 104.2,323.6 105.7,316.7 
	142.2,142.2 153.5,144.5 118.4,312.1 215.6,312.1 312.8,312.1 277.7,144.5 "/>
<polygon class="st1" points="246.2,142.9 259.6,317.4 260,323.6 253.8,323.6 215.6,323.6 177.4,323.6 171.2,323.6 171.7,317.4 
	185,143.3 196.5,144.1 183.6,312.1 215.6,312.1 247.6,312.1 234.7,143.8 "/>
<rect x="93.1" y="174.8" class="st1" width="245.1" height="11.5"/>
<rect x="79.3" y="215.3" class="st1" width="272.6" height="11.5"/>
<rect x="64.8" y="257.9" class="st1" width="301.6" height="11.5"/>
<rect x="209.9" y="317.8" class="st1" width="11.5" height="61.7"/>
<path class="st1" d="M106.4,137.6H325c2.7,0,5,1.9,5.6,4.4L385,316.1l0,0c0.9,3-0.7,6.3-3.8,7.2c-0.6,0.2-1.2,0.3-1.8,0.3H51.7
	c-3.2,0-5.8-2.6-5.8-5.8c0-0.7,0.1-1.4,0.4-2.1l54.5-174.1l5.5,1.7l-5.5-1.7C101.6,139.1,103.9,137.5,106.4,137.6L106.4,137.6z
	 M320.7,149.1H110.5l-51,163h312.2L320.7,149.1z"/>
<path class="st1" d="M270.5,143.4c0,3.2,2.6,5.8,5.8,5.8c3.2,0,5.8-2.6,5.8-5.8c0-11.9,4.8-22.6,12.6-30.3
	c7.8-7.8,18.5-12.6,30.3-12.6c11.9,0,22.6,4.8,30.3,12.6c7.8,7.8,12.6,18.5,12.6,30.3c0,9.5-3.1,18.3-8.3,25.4
	c-5.4,7.3-13,12.8-21.8,15.6c-3,0.9-4.7,4.2-3.8,7.2c0.9,3,4.2,4.7,7.2,3.8c11.2-3.5,20.8-10.5,27.6-19.8c6.6-9,10.5-20.2,10.5-32.2
	c0-15-6.1-28.6-15.9-38.5C353.6,95,340,88.9,325,88.9c-15,0-28.6,6.1-38.5,15.9C276.6,114.7,270.5,128.3,270.5,143.4z"/>
<path class="st1" d="M330.7,59.5c0-3.2-2.6-5.8-5.8-5.8c-3.2,0-5.8,2.6-5.8,5.8v15.6c0,3.2,2.6,5.8,5.8,5.8c3.2,0,5.8-2.6,5.8-5.8
	V59.5z"/>
<path class="st1" d="M371.9,73.6c1.6-2.7,0.6-6.3-2.1-7.8c-2.7-1.6-6.3-0.6-7.8,2.1l-7.8,13.5c-1.6,2.7-0.6,6.3,2.1,7.8
	c2.7,1.6,6.3,0.6,7.8-2.1L371.9,73.6z"/>
<path class="st1" d="M400.4,106.4c2.7-1.6,3.7-5.1,2.1-7.8c-1.6-2.7-5.1-3.7-7.8-2.1l-13.5,7.8c-2.7,1.6-3.7,5.1-2.1,7.8
	c1.6,2.7,5.1,3.7,7.8,2.1L400.4,106.4z"/>
<path class="st1" d="M408.8,149.1c3.2,0,5.8-2.6,5.8-5.8c0-3.2-2.6-5.8-5.8-5.8h-15.6c-3.2,0-5.8,2.6-5.8,5.8c0,3.2,2.6,5.8,5.8,5.8
	H408.8z"/>
<path class="st1" d="M394.7,190.3c2.7,1.6,6.3,0.6,7.8-2.1c1.6-2.7,0.6-6.3-2.1-7.8l-13.5-7.8c-2.7-1.6-6.3-0.6-7.8,2.1
	c-1.6,2.7-0.6,6.3,2.1,7.8L394.7,190.3z"/>
<path class="st1" d="M361.9,218.9c1.6,2.7,5.1,3.7,7.9,2.1c2.7-1.6,3.7-5.1,2.1-7.9l-7.8-13.5c-1.6-2.7-5.1-3.7-7.9-2.1
	c-2.7,1.6-3.7,5.1-2.1,7.9L361.9,218.9z"/>
<path class="st1" d="M255.2,96.5c-2.7-1.6-6.3-0.6-7.8,2.1c-1.6,2.7-0.6,6.3,2.1,7.8l13.5,7.8c2.7,1.6,6.3,0.6,7.8-2.1
	c1.6-2.7,0.6-6.3-2.1-7.8L255.2,96.5z"/>
<path class="st1" d="M288,67.9c-1.6-2.7-5.1-3.7-7.8-2.1c-2.7,1.6-3.7,5.1-2.1,7.8l7.8,13.5c1.6,2.7,5.1,3.7,7.8,2.1
	c2.7-1.6,3.7-5.1,2.1-7.8L288,67.9z"/>
</svg>
