<?xml version="1.0" encoding="utf-8"?>
<!-- Generator: Adobe Illustrator 22.1.0, SVG Export Plug-In . SVG Version: 6.00 Build 0)  -->
<svg version="1.1" id="Layer_1" xmlns="http://www.w3.org/2000/svg" xmlns:xlink="http://www.w3.org/1999/xlink" x="0px" y="0px"
	 viewBox="0 0 460 460" style="enable-background:new 0 0 460 460;" xml:space="preserve">
<style type="text/css">
	.st0{fill:#66D100;}
	.st1{fill:#FFFFFF;}
</style>
<path class="st0" d="M49.1,1H411c27,0,49,22,49,49.1V412c0,27.1-22,49.1-49.1,49.1H49.1C22,461,0,439,0,411.9V50.1C0,23,22,1,49.1,1
	z"/>
<g>
	<path class="st1" d="M292.9,83.2H276v-1.5c0-9.2-8.1-16.6-18.1-16.6h-56.8c-10,0-18.1,7.4-18.1,16.6v1.5h-16
		c-15.2,0-27.6,11.3-27.6,25.3v261.1c0,13.9,12.4,25.3,27.6,25.3h125.9c15.2,0,27.6-11.3,27.6-25.3V108.5
		C320.5,94.6,308.1,83.2,292.9,83.2z M304,369.6c0,5.6-5,10.2-11.1,10.2H167.1c-6.1,0-11.1-4.6-11.1-10.2V108.5
		c0-5.6,5-10.2,11.1-10.2h32.5V81.7c0-0.8,0.8-1.5,1.6-1.5H258c0.9,0,1.6,0.7,1.6,1.5v16.6h33.3c6.1,0,11.1,4.6,11.1,10.2V369.6z"/>
	<path class="st1" d="M291.8,107.4H169c-2.2,0-4,1.8-4,4v53.9c0,2.2,1.8,4,4,4h122.8c2.2,0,4-1.8,4-4v-53.9
		C295.8,109.2,294,107.4,291.8,107.4z"/>
	<path class="st1" d="M291.8,175H169c-2.2,0-4,1.8-4,4v54c0,2.2,1.8,4,4,4h122.8c2.2,0,4-1.8,4-4v-54C295.8,176.8,294,175,291.8,175
		z"/>
	<path class="st1" d="M291.8,242.7H169c-2.2,0-4,1.8-4,4v53.9c0,2.2,1.8,4,4,4h122.8c2.2,0,4-1.8,4-4v-53.9
		C295.8,244.5,294,242.7,291.8,242.7z"/>
	<path class="st1" d="M291.8,310.3H169c-2.2,0-4,1.8-4,4v53.9c0,2.2,1.8,4,4,4h122.8c2.2,0,4-1.8,4-4v-53.9
		C295.8,312.1,294,310.3,291.8,310.3z"/>
</g>
</svg>
