<?xml version="1.0" encoding="utf-8"?>
<!-- Generator: Adobe Illustrator 22.1.0, SVG Export Plug-In . SVG Version: 6.00 Build 0)  -->
<svg version="1.1" id="Layer_1" xmlns="http://www.w3.org/2000/svg" xmlns:xlink="http://www.w3.org/1999/xlink" x="0px" y="0px"
	 viewBox="0 0 765.3 359.2" style="enable-background:new 0 0 765.3 359.2;" xml:space="preserve">
<style type="text/css">
	.st0{fill:#D52028;}
</style>
<title>03. ADS White Icon</title>
<g>
	<path class="st0" d="M520.4,156.7c16.3,19.4,33.4,38,59.1,47c1.2,0.4,1.9,1.6,1.8,2.8c-1.2,9.5-1.8,19-4,28
		c-9.4,38.6-30.3,69-65.2,88.9c-18.1,10.3-38.2,14.4-58.6,14.7c-53.3,0.7-106.7,0.2-160.1,0.1c-3.7,0-7.4-1-11-0.9
		c-13.6,0.3-21.8-6.6-26.4-18.9c-13.9-37.2-27.8-74.4-41.8-111.5c-11.3-29.6-22.9-59.1-34.4-88.7c-6-15.5-12-31-18-46.5l-0.3-0.6
		c-0.5-1.3-2.1-2-3.4-1.5c-0.7,0.3-1.3,0.9-1.5,1.6l-45.9,136.2c-0.5,1.4,0.3,2.9,1.7,3.4c0.3,0.1,0.6,0.1,0.8,0.1H199
		c1.1,0,2.1,0.7,2.5,1.7c5.3,14.2,10.4,28.2,15.8,42.9c0.5,1.4-0.2,2.9-1.6,3.4c-0.2,0.1-0.5,0.1-0.7,0.2c-2.3,0.1-4.3,0.3-6.2,0.3
		c-35.8-0.1-71.6,0.1-107.4-0.5c-8.4-0.1-12.8,2.4-15.8,10.3c-7.1,19-14.6,37.9-22.7,56.5c-3.4,7.9-8,15.2-13.5,21.8
		c-7.2,8.7-24.1,11.4-34.2,6.9c-10.9-4.8-17.2-16.1-14.6-29c2-9.9,5-19.7,8.9-29.1c9.7-24,20.3-47.6,30-71.5
		c20.1-49,39.8-98.2,59.7-147.3c6.4-15.7,12.3-31.6,19.4-47c3.4-7.2,8.1-13.8,13.7-19.5c9.5-9.5,21-12.3,34.7-9.8
		c21.4,3.9,33.4,16.8,41,35.9c27.5,68.9,55.1,137.8,82.8,206.6c3,7.4,5.9,14.9,9.3,22.1c7.4,15.1,18.7,23.3,36.5,23.2
		c32.4-0.2,64.8,0.9,97.1,1c7.4-0.2,14.7-1.1,21.9-2.9c23.4-5.1,39.1-19.1,48.5-41.2c10.3-23.8,15.2-49.6,14.5-75.6
		c-0.1-3.7,0-7.5,0-11.2c0-1,0.6-2,1.6-2.4L520.4,156.7z"/>
	<path class="st0" d="M540.5,324l35.3-41.1c8.8,5,17.8,10.8,27.4,15.5c25.1,12.4,50.2,10.7,74.3-2.3c7.5-4.2,14.1-9.8,19.4-16.6
		c16.9-21.9,9.8-49.9-15.7-60.4c-15.6-6.4-32-10.9-48.3-15.3c-18.4-4.9-37.5-7.6-54.8-15.9c-21.7-10.3-38.4-26.7-51.5-46.4
		c-10-14.8-18.8-30.4-26.4-46.5c-10-21.5-26-33.9-49.1-37.3c-8.8-1.3-17.7-2-26.6-2c-38.9-0.2-77.7-0.1-116.6-0.1
		c-2.2,0-4.3-0.1-6.5-0.2c-4.9-0.1-7.4-2.4-7.4-7.4c0-3.7-0.2-7.4-0.3-11.1c-0.2-7.7-0.2-15.4-0.7-23.1c-0.5-8.3,1.3-11.3,9.5-12.8
		c4.3-0.7,8.6-1,12.9-0.9c32.7,0.8,65.3,1.8,98,2.7c12.3,0.3,24.7,0.2,37,0.9c24.5,1.2,47.2,7.6,67.2,22.6
		c12.6,9.4,23.1,21.4,30.6,35.3c8.6,15.6,17.5,31.1,26.3,46.7c13,22.9,34,32.6,58.9,36.6c27.4,4.5,54.5,10.4,80.1,21.5
		c23.5,10.3,40.8,26.9,47.4,52.1c15,56.6-9.9,108.3-65.7,129.9c-22.2,8.7-46,12.3-69.7,10.4c-22.8-1.8-45.2-6.7-65.1-18.9
		C553.4,335.4,547.2,329.3,540.5,324"/>
	<path class="st0" d="M583.6,94.5c-5.2-8.7-18.6-32.2-23.3-39.7c-2.6-4.2-9.2-14-12.2-17.9c-2.4-3.2-1.9-5.9,1.3-7.7
		c4.5-2.7,9.1-5.2,13.9-7.3c17.4-7.7,35.5-11.7,54.6-13c25.6-1.8,50.5,0.4,74.4,9.6c33.5,12.9,52.3,37.8,57.2,73.1
		c1.8,12.5-4.4,22.6-16.1,27c-11.9,4.5-22.8,1.4-29.9-9.4c-4.8-7.5-8.6-15.6-13.1-23.3c-15.8-27.1-38.2-29.6-69-24.2
		C604.1,64.6,590.8,76.6,583.6,94.5"/>
	<path class="st0" d="M353.1,170.9c0,29,0,58,0,87c0,12.2-1.5,13.7-13.6,14.9c-2.8,0.3-5.5,0.2-8.3,0.4c-7.7,0.6-13.4-2.7-16.4-9.6
		c-6.1-14.1-11.7-24.8-17.2-39.1c-1.2-3-1.2-10.3-1.2-13.6c0-42.9,0-85.7,0-128.6c0-11,2.7-13.7,13.5-13.9c10.2-0.1,20.4-0.2,30.5,0
		S353,70.9,353,81.2C353.2,111.1,353.1,141,353.1,170.9L353.1,170.9z"/>
</g>
</svg>
